# xmcd
#
# Track frame offsets: 
#        150
#        21870
#        35670
#        54924
#        77697
#        100018
#        122558
#        141777
#        167297
#        183732
#        202122
#        225512
#        244528
#        263547
#        288328
#        312785
#
# Disc length: 4454 seconds
#
# Revision: 1
# Processed by: cddbd v1.5.1PL2 Copyright (c) Steve Scherf et al.
# Submitted via: ExactAudioCopy v0.95a5
#
DISCID=cb116410
DTITLE=八音暴龙收藏 - 《女子十二乐坊The Best Of Covers（新）》
DYEAR=2005
DGENRE=Instrumental Pop
TTITLE0=在世上唯一的花朵
TTITLE1=多啦A梦
TTITLE2=泪汪汪
TTITLE3=突然发生的爱情故事
TTITLE4=像河流一样
TTITLE5=时钟
TTITLE6=在晴天出发
TTITLE7=新古典主义(组曲)
TTITLE8=唯一时间
TTITLE9=自由
TTITLE10=我只在乎你
TTITLE11=故乡人
TTITLE12=花
TTITLE13=盛夏果实
TTITLE14=地上之星
TTITLE15=察尔达斯
EXTD=《女子十二乐坊The Best Of Covers（新）》\nYEAR: 2005\n专 辑 - 女
EXTD=子十二乐坊（新）\n歌 手 - 女子十二乐坊\n时 间 - 2006年4月1日\n公 
EXTD=司 - 百代唱片\n八音暴龙收藏
EXTT0=
EXTT1=
EXTT2=
EXTT3=
EXTT4=
EXTT5=
EXTT6=
EXTT7=
EXTT8=
EXTT9=
EXTT10=
EXTT11=
EXTT12=
EXTT13=
EXTT14=
EXTT15=
PLAYORDER=
